<?xml version="1.0" encoding="UTF-8"?>
<svg version="1.1" xmlns="http://www.w3.org/2000/svg" width="512" height="512">
<path d="M0 0 C3.27950333 2.9965005 6.43851472 6.09189943 9.5625 9.25 C10.31789063 10.00796875 11.07328125 10.7659375 11.8515625 11.546875 C36.48539283 37.41651622 48.94134278 73.80790512 48.5625 109.25 C47.76457593 131.39638261 42.92044079 151.71568127 32.9465332 171.5168457 C32.45828945 172.48955288 32.45828945 172.48955288 31.96018219 173.48191071 C31.16197324 175.07178553 30.36237581 176.66096313 29.5625 178.25 C31.51568649 178.24333817 31.51568649 178.24333817 33.5083313 178.23654175 C45.77971711 178.19599807 58.05108934 178.16601671 70.32252693 178.14637566 C76.6313875 178.13593857 82.94019399 178.12178058 89.24902344 178.09912109 C95.33739631 178.07739028 101.42571716 178.06543081 107.51412582 178.06024551 C109.83694146 178.05655021 112.15975426 178.04933425 114.48254776 178.03853989 C117.73598635 178.024022 120.98921001 178.02202221 124.24267578 178.02294922 C125.20293167 178.01575867 126.16318756 178.00856812 127.15254211 178.00115967 C133.10646661 178.01951637 138.1740498 178.18431334 142.875 182.25 C145.95567802 185.90117395 145.88359668 188.51382403 145.5625 193.25 C143.87996766 196.95157116 142.06973004 199.20822004 138.5625 201.25 C135.89405207 201.53975746 133.46092143 201.65645859 130.79375648 201.63311005 C130.00246818 201.63806956 129.21117987 201.64302908 128.39591312 201.64813888 C125.72802477 201.6611559 123.06063192 201.6526911 120.39273071 201.64440918 C118.46726925 201.6492952 116.54181072 201.65548365 114.61635721 201.66286707 C109.31239954 201.67932645 104.00858993 201.67693649 98.70461559 201.6714921 C92.98943426 201.66882927 87.27429306 201.68333963 81.55912781 201.69558716 C70.35744377 201.71667507 59.15581146 201.72118008 47.95410992 201.71939927 C38.85194186 201.71809333 29.74978998 201.72188722 20.64762497 201.72932434 C18.0290093 201.73142346 15.41039364 201.73352106 12.79177797 201.73561716 C11.48855078 201.73666069 10.1853236 201.73770422 8.84260468 201.73877937 C-8.81255425 201.75231905 -26.46770559 201.75990301 -44.12286949 201.75545502 C-44.81354986 201.75528306 -45.50423022 201.75511111 -46.2158403 201.75493394 C-49.71661774 201.75404503 -53.21739517 201.75310022 -56.71817259 201.75213593 C-57.41345888 201.7519449 -58.10874516 201.75175387 -58.82510072 201.75155704 C-60.23113924 201.75116995 -61.63717777 201.75077963 -63.04321629 201.75038607 C-84.92240875 201.7444157 -106.80149545 201.75985422 -128.68066406 201.79199219 C-153.25287765 201.82805518 -177.8250178 201.84735994 -202.39726031 201.84245348 C-215.41117703 201.84020581 -228.42498891 201.84549534 -241.43888474 201.87034607 C-252.51792075 201.89132135 -263.59679444 201.8949887 -274.67583703 201.87604648 C-280.33126102 201.86686536 -285.98638206 201.86581831 -291.64178276 201.88640213 C-296.81591105 201.9050264 -301.98948645 201.9007049 -307.16359313 201.87785631 C-309.03840044 201.87364887 -310.91324944 201.877942 -312.78801279 201.89145225 C-315.33170697 201.908539 -317.87345461 201.89497514 -320.4170742 201.87361908 C-321.14939805 201.88589661 -321.8817219 201.89817413 -322.63623738 201.9108237 C-328.29527665 201.81118873 -330.60514151 200.11946736 -334.4375 196.25 C-336.03311887 193.05876226 -335.8174142 189.72254909 -335.4375 186.25 C-333.80062815 182.66447119 -332.74777417 181.45684945 -329.4375 179.25 C-326.18995602 178.41390155 -323.15688443 178.12577772 -319.8120575 178.12974548 C-318.91328384 178.12837082 -318.01451019 178.12699615 -317.08850098 178.12557983 C-316.11529907 178.12917511 -315.14209717 178.13277039 -314.1394043 178.13647461 C-312.58749138 178.13625557 -312.58749138 178.13625557 -311.00422668 178.1360321 C-307.59003593 178.13672786 -304.17589996 178.14450456 -300.76171875 178.15234375 C-298.39231903 178.15420912 -296.02291892 178.15563246 -293.65351868 178.15663147 C-287.42120293 178.16044724 -281.18891053 178.17026953 -274.956604 178.18133545 C-268.59542151 178.19156976 -262.23423523 178.19613342 -255.87304688 178.20117188 C-243.394521 178.21189261 -230.91601244 178.22895778 -218.4375 178.25 C-219.26914925 176.60084091 -219.26914925 176.60084091 -220.11759949 174.91836548 C-220.8495642 173.46205955 -221.58143701 172.00570742 -222.31323242 170.54931641 C-222.6781353 169.82631851 -223.04303818 169.10332062 -223.41899872 168.3584137 C-225.83635762 163.54154948 -228.04749331 158.74575884 -229.75 153.625 C-229.98944336 152.91666016 -230.22888672 152.20832031 -230.47558594 151.47851562 C-239.47468658 124.1497325 -239.65442192 93.79890528 -231.4375 66.25 C-231.1283667 65.21117676 -231.1283667 65.21117676 -230.81298828 64.15136719 C-220.24914269 29.71812928 -195.63180223 -0.65846404 -164.05273438 -18.06445312 C-147.91418089 -26.6054335 -130.6452382 -32.65120383 -112.4375 -34.75 C-111.11492187 -34.91435547 -111.11492187 -34.91435547 -109.765625 -35.08203125 C-69.77767699 -39.41598515 -30.00076535 -26.64773863 0 0 Z " fill="#FDDA41" transform="translate(350.4375,185.75)"/>
<path d="M0 0 C3.27950333 2.9965005 6.43851472 6.09189943 9.5625 9.25 C10.31789063 10.00796875 11.07328125 10.7659375 11.8515625 11.546875 C36.48539283 37.41651622 48.94134278 73.80790512 48.5625 109.25 C47.76457593 131.39638261 42.92044079 151.71568127 32.9465332 171.5168457 C32.45828945 172.48955288 32.45828945 172.48955288 31.96018219 173.48191071 C31.16197324 175.07178553 30.36237581 176.66096313 29.5625 178.25 C31.51568649 178.24333817 31.51568649 178.24333817 33.5083313 178.23654175 C45.77971711 178.19599807 58.05108934 178.16601671 70.32252693 178.14637566 C76.6313875 178.13593857 82.94019399 178.12178058 89.24902344 178.09912109 C95.33739631 178.07739028 101.42571716 178.06543081 107.51412582 178.06024551 C109.83694146 178.05655021 112.15975426 178.04933425 114.48254776 178.03853989 C117.73598635 178.024022 120.98921001 178.02202221 124.24267578 178.02294922 C125.20293167 178.01575867 126.16318756 178.00856812 127.15254211 178.00115967 C133.10646661 178.01951637 138.1740498 178.18431334 142.875 182.25 C145.95567802 185.90117395 145.88359668 188.51382403 145.5625 193.25 C143.87996766 196.95157116 142.06973004 199.20822004 138.5625 201.25 C135.89405207 201.53975746 133.46092143 201.65645859 130.79375648 201.63311005 C130.00246818 201.63806956 129.21117987 201.64302908 128.39591312 201.64813888 C125.72802477 201.6611559 123.06063192 201.6526911 120.39273071 201.64440918 C118.46726925 201.6492952 116.54181072 201.65548365 114.61635721 201.66286707 C109.31239954 201.67932645 104.00858993 201.67693649 98.70461559 201.6714921 C92.98943426 201.66882927 87.27429306 201.68333963 81.55912781 201.69558716 C70.35744377 201.71667507 59.15581146 201.72118008 47.95410992 201.71939927 C38.85194186 201.71809333 29.74978998 201.72188722 20.64762497 201.72932434 C18.0290093 201.73142346 15.41039364 201.73352106 12.79177797 201.73561716 C11.48855078 201.73666069 10.1853236 201.73770422 8.84260468 201.73877937 C-8.81255425 201.75231905 -26.46770559 201.75990301 -44.12286949 201.75545502 C-44.81354986 201.75528306 -45.50423022 201.75511111 -46.2158403 201.75493394 C-49.71661774 201.75404503 -53.21739517 201.75310022 -56.71817259 201.75213593 C-57.41345888 201.7519449 -58.10874516 201.75175387 -58.82510072 201.75155704 C-60.23113924 201.75116995 -61.63717777 201.75077963 -63.04321629 201.75038607 C-84.92240875 201.7444157 -106.80149545 201.75985422 -128.68066406 201.79199219 C-153.25287765 201.82805518 -177.8250178 201.84735994 -202.39726031 201.84245348 C-215.41117703 201.84020581 -228.42498891 201.84549534 -241.43888474 201.87034607 C-252.51792075 201.89132135 -263.59679444 201.8949887 -274.67583703 201.87604648 C-280.33126102 201.86686536 -285.98638206 201.86581831 -291.64178276 201.88640213 C-296.81591105 201.9050264 -301.98948645 201.9007049 -307.16359313 201.87785631 C-309.03840044 201.87364887 -310.91324944 201.877942 -312.78801279 201.89145225 C-315.33170697 201.908539 -317.87345461 201.89497514 -320.4170742 201.87361908 C-321.14939805 201.88589661 -321.8817219 201.89817413 -322.63623738 201.9108237 C-328.29527665 201.81118873 -330.60514151 200.11946736 -334.4375 196.25 C-336.03311887 193.05876226 -335.8174142 189.72254909 -335.4375 186.25 C-333.80062815 182.66447119 -332.74777417 181.45684945 -329.4375 179.25 C-326.18995602 178.41390155 -323.15688443 178.12577772 -319.8120575 178.12974548 C-318.91328384 178.12837082 -318.01451019 178.12699615 -317.08850098 178.12557983 C-316.11529907 178.12917511 -315.14209717 178.13277039 -314.1394043 178.13647461 C-312.58749138 178.13625557 -312.58749138 178.13625557 -311.00422668 178.1360321 C-307.59003593 178.13672786 -304.17589996 178.14450456 -300.76171875 178.15234375 C-298.39231903 178.15420912 -296.02291892 178.15563246 -293.65351868 178.15663147 C-287.42120293 178.16044724 -281.18891053 178.17026953 -274.956604 178.18133545 C-268.59542151 178.19156976 -262.23423523 178.19613342 -255.87304688 178.20117188 C-243.394521 178.21189261 -230.91601244 178.22895778 -218.4375 178.25 C-219.26914925 176.60084091 -219.26914925 176.60084091 -220.11759949 174.91836548 C-220.8495642 173.46205955 -221.58143701 172.00570742 -222.31323242 170.54931641 C-222.6781353 169.82631851 -223.04303818 169.10332062 -223.41899872 168.3584137 C-225.83635762 163.54154948 -228.04749331 158.74575884 -229.75 153.625 C-229.98944336 152.91666016 -230.22888672 152.20832031 -230.47558594 151.47851562 C-239.47468658 124.1497325 -239.65442192 93.79890528 -231.4375 66.25 C-231.1283667 65.21117676 -231.1283667 65.21117676 -230.81298828 64.15136719 C-220.24914269 29.71812928 -195.63180223 -0.65846404 -164.05273438 -18.06445312 C-147.91418089 -26.6054335 -130.6452382 -32.65120383 -112.4375 -34.75 C-111.11492187 -34.91435547 -111.11492187 -34.91435547 -109.765625 -35.08203125 C-69.77767699 -39.41598515 -30.00076535 -26.64773863 0 0 Z M-144.4375 -2.75 C-145.96890625 -2.07324219 -145.96890625 -2.07324219 -147.53125 -1.3828125 C-175.16227579 11.48742846 -196.24223211 35.84744411 -207.3125 63.984375 C-208.72457232 68.08330716 -209.99250565 72.20799451 -211.1875 76.375 C-211.39858398 77.10315918 -211.60966797 77.83131836 -211.82714844 78.58154297 C-219.65241517 107.21636548 -213.68371203 138.75931323 -200.44140625 164.74609375 C-200.12956925 165.27124321 -199.81773226 165.79639267 -199.49644566 166.33745575 C-198.4375 168.25 -198.4375 168.25 -197.3601141 170.94727325 C-195.72556548 174.38603576 -194.24444152 176.65471462 -191.4375 179.25 C-185.31398141 180.96139834 -179.28055267 180.77692977 -172.96118164 180.70507812 C-171.0617748 180.72326852 -169.16240762 180.74610347 -167.2631073 180.77322388 C-162.11366343 180.83185165 -156.96657273 180.82072299 -151.81695104 180.79344368 C-147.51509684 180.7771496 -143.21367429 180.79537053 -138.91184992 180.8136878 C-128.76187803 180.85653684 -118.61304724 180.8434167 -108.46313477 180.79394531 C-97.99827225 180.74377489 -87.53633506 180.78073058 -77.07173258 180.86187029 C-68.0802291 180.92891102 -59.08962855 180.94533835 -50.09790891 180.92052412 C-44.73045437 180.90599987 -39.3646608 180.90973995 -33.99739265 180.96070862 C-28.94887014 181.0061512 -23.90443857 180.98809948 -18.85618782 180.92162704 C-17.00674613 180.90766477 -15.15698367 180.91572177 -13.30776596 180.94771194 C-7.74921893 181.03598337 -2.76482165 180.94173018 2.5625 179.25 C6.50689852 175.3162427 8.40416452 171.39701325 10.5625 166.25 C11.58983257 164.34636105 12.62912356 162.4490558 13.6875 160.5625 C27.73594175 131.50863818 30.02581635 97.66165252 19.57714844 67.11450195 C14.45157069 52.95709761 7.25260256 40.72788893 -2.4375 29.25 C-3.21738281 28.30640625 -3.99726563 27.3628125 -4.80078125 26.390625 C-18.68937363 10.29713334 -37.30359768 -1.15228965 -57.4375 -7.75 C-58.53529785 -8.11399902 -58.53529785 -8.11399902 -59.65527344 -8.48535156 C-87.09398361 -17.18822704 -118.41047826 -14.85134889 -144.4375 -2.75 Z " fill="#083862" transform="translate(350.4375,185.75)"/>
<path d="M0 0 C1.23887838 -0.00384115 2.47775676 -0.00768229 3.75417691 -0.01163983 C5.13645516 -0.01085955 6.51873334 -0.00998075 7.90101147 -0.00901413 C9.3636294 -0.01159704 10.82624664 -0.01461 12.28886288 -0.01801753 C16.31806339 -0.02609939 20.3472461 -0.02787776 24.37645376 -0.028615 C28.71807451 -0.03046348 33.05968598 -0.03800976 37.40130138 -0.04475021 C46.89915631 -0.05834226 56.39700701 -0.06435955 65.89487004 -0.06876087 C71.82293522 -0.0715217 77.75099877 -0.07575875 83.67906284 -0.08026505 C100.08528351 -0.09245862 116.49150287 -0.10275791 132.89772797 -0.10614014 C133.94811523 -0.1063597 134.99850248 -0.10657927 136.08071966 -0.10680549 C137.13364914 -0.10702377 138.18657862 -0.10724204 139.27141505 -0.10746694 C141.40512391 -0.10791041 143.53883276 -0.10835697 145.67254162 -0.10880661 C147.26013843 -0.10913875 147.26013843 -0.10913875 148.87980791 -0.10947761 C166.03451136 -0.11342669 183.18917236 -0.13088367 200.34385941 -0.15416613 C217.94731823 -0.17786526 235.55075574 -0.19034132 253.15423077 -0.19150805 C263.04158158 -0.1924256 272.92887706 -0.19819795 282.81621265 -0.21632767 C291.23458112 -0.23170922 299.65287719 -0.23686062 308.07125703 -0.22858956 C312.36766609 -0.22467621 316.66392926 -0.22564598 320.96032047 -0.23964691 C324.89274898 -0.25234478 328.82492133 -0.25122474 332.75734928 -0.2390562 C334.18064335 -0.23709204 335.60395532 -0.2402107 337.02722422 -0.24890056 C338.96124528 -0.25996209 340.89535055 -0.25073195 342.82937622 -0.24050903 C344.44112802 -0.24140467 344.44112802 -0.24140467 346.08544046 -0.24231839 C349.66438706 0.20089347 352.04023642 1.24579372 355.10344982 3.13142776 C357.34898199 6.89812688 358.10344982 9.37044012 358.10344982 13.75642776 C356.89718148 17.82758342 355.41298293 19.51458764 352.10344982 22.13142776 C348.78688202 23.28620585 345.60842383 23.25877785 342.11787987 23.26285553 C340.26795096 23.26861725 340.26795096 23.26861725 338.38064975 23.27449536 C337.00986328 23.27371513 335.63907687 23.27283634 334.26829052 23.27186966 C332.81377182 23.27445335 331.35925382 23.27746652 329.90473682 23.28087306 C325.90252939 23.28894572 321.9003399 23.29073278 317.89812529 23.29147053 C313.58376975 23.2933206 309.26942352 23.30086766 304.95507336 23.30760574 C295.51919201 23.32119105 286.08331491 23.32721397 276.64742541 23.3316164 C270.75703672 23.33437825 264.86664967 23.33861548 258.97626209 23.34312057 C242.67122755 23.35531305 226.36619432 23.3656127 210.06115532 23.36899567 C209.01748997 23.36921523 207.97382461 23.3694348 206.89853304 23.36966102 C205.85235701 23.3698793 204.80618099 23.37009757 203.72830266 23.37032247 C201.6083159 23.37076593 199.48832915 23.3712125 197.3683424 23.37166214 C196.31675356 23.37188357 195.26516473 23.372105 194.18170957 23.37233314 C177.13767608 23.37628216 160.09368531 23.39373946 143.04966833 23.41702166 C125.55578422 23.44072577 108.06192156 23.45319707 90.56802112 23.45436358 C80.74381039 23.45528083 70.91965534 23.46104559 61.09545994 23.4791832 C52.73094294 23.49457141 44.36649883 23.49971218 36.00197037 23.49144509 C31.73378382 23.48753418 27.46574412 23.48848972 23.19757557 23.50250244 C19.28980647 23.51521473 15.38229499 23.51406748 11.47452638 23.50191173 C10.06133853 23.4999501 8.6481326 23.50305469 7.23497017 23.51175609 C-6.26416541 23.58960897 -6.26416541 23.58960897 -11.89655018 20.13142776 C-14.21675947 16.36108767 -14.89655018 13.92704685 -14.89655018 9.50642776 C-13.69698681 5.45790139 -12.15277498 3.76741927 -8.89655018 1.13142776 C-5.68194387 0.05989233 -3.38030505 0.00392317 0 0 Z " fill="#083863" transform="translate(83.89655017852783,407.8685722351074)"/>
<path d="M0 0 C0.87722194 -0.00706559 1.75444388 -0.01413118 2.65824831 -0.02141088 C3.6227272 -0.0189958 4.5872061 -0.01658071 5.58091164 -0.01409245 C6.60491872 -0.01932912 7.62892581 -0.0245658 8.68396342 -0.02996117 C12.13171764 -0.04502049 15.57932423 -0.04566762 19.02710915 -0.04633427 C21.49231659 -0.05395172 23.95752165 -0.0623785 26.42272377 -0.07155704 C33.13135642 -0.0935489 39.83992931 -0.10232864 46.54858923 -0.10738349 C50.73655958 -0.11063907 54.92452073 -0.11716067 59.11248589 -0.12438488 C70.7053892 -0.14395154 82.29828395 -0.16035557 93.89120483 -0.16326141 C95.00421571 -0.16354277 95.00421571 -0.16354277 96.13971166 -0.16382981 C97.64396993 -0.16419606 99.14822821 -0.16455976 100.65248649 -0.16492092 C101.39921255 -0.16510373 102.14593861 -0.16528654 102.91529274 -0.16547489 C103.66292899 -0.16565544 104.41056524 -0.16583599 105.18085714 -0.16602201 C117.29887216 -0.16956467 129.41670959 -0.19659236 141.53466301 -0.23397278 C153.97283816 -0.27203433 166.41092514 -0.29141873 178.84915984 -0.29172093 C185.83410598 -0.29230596 192.81884024 -0.30082718 199.80373192 -0.32971859 C206.37173112 -0.35676051 212.93938322 -0.35815569 219.50744247 -0.34206295 C221.92096495 -0.34024116 224.33451109 -0.34700445 226.74798203 -0.36288166 C230.03744068 -0.38320592 233.32540924 -0.3728696 236.61484718 -0.35466862 C237.57486464 -0.36786858 238.53488209 -0.38106855 239.52399099 -0.39466852 C244.12250017 -0.3363629 246.07528525 -0.25069453 249.79423904 2.67348289 C252.49059323 6.28595946 253.11754583 8.58310105 253.08423805 13.15459347 C252.44904491 16.87599675 250.38507289 18.66319071 247.72486305 21.26006222 C245.42911263 22.40793743 244.14124922 22.3892062 241.5883913 22.39707661 C240.28077006 22.40468842 240.28077006 22.40468842 238.94673222 22.41245401 C237.50148103 22.41320064 237.50148103 22.41320064 236.02703285 22.41396236 C235.00796374 22.41834462 233.98889463 22.42272687 232.93894464 22.42724192 C229.50194103 22.44066609 226.06496307 22.44681686 222.62793922 22.45293331 C220.17273275 22.46083134 217.71752745 22.4691001 215.26232338 22.47771358 C207.87857331 22.5016987 200.49482746 22.51686544 193.11105177 22.52977365 C191.02621691 22.53348479 188.94138273 22.53745808 186.85654855 22.54152632 C173.9149738 22.56676068 160.97339801 22.58881768 148.03180408 22.60125446 C145.03357565 22.60418424 142.03534726 22.6071459 139.03711891 22.61015987 C138.29190777 22.61090592 137.54669664 22.61165198 136.77890334 22.61242063 C124.70286494 22.62507834 112.62697363 22.65830652 100.55100401 22.69996171 C88.15806956 22.74236051 75.76521046 22.76594706 63.37220365 22.77117503 C56.41182319 22.77459137 49.45167267 22.78637253 42.49136353 22.81927776 C35.94555341 22.85017243 29.40007195 22.85570669 22.85417557 22.843894 C20.44871083 22.84367242 18.04322801 22.85204708 15.63782692 22.86954784 C12.35927704 22.89210717 9.08219967 22.88400497 5.80364418 22.86806393 C4.84683555 22.88194601 3.89002693 22.8958281 2.9042241 22.91013086 C-1.68771915 22.85493831 -3.62889088 22.76843404 -7.34256077 19.84706211 C-10.4438547 15.69558433 -10.83412967 12.36945183 -10.27513695 7.26006222 C-8.01906082 2.31818117 -5.50338418 0.01415274 0 0 Z " fill="#083863" transform="translate(134.27513694763184,451.7399377822876)"/>
<path d="M0 0 C0.76183594 -0.00515625 1.52367187 -0.0103125 2.30859375 -0.015625 C5.95620243 0.41424916 7.9875524 1.55184934 10.3125 4.375 C11.94083588 8.12017253 12.46327092 11.28458649 11.5625 15.25 C7.9540286 21.46254912 2.55199499 26.554601 -2.50390625 31.58203125 C-3.63867653 32.71967171 -3.63867653 32.71967171 -4.79637146 33.8802948 C-6.38482271 35.47009843 -7.97576788 37.05741384 -9.5690918 38.64233398 C-12.00348851 41.06597309 -14.42696911 43.50016232 -16.84960938 45.93554688 C-18.40040043 47.48501705 -19.9518114 49.03386709 -21.50390625 50.58203125 C-22.22485977 51.30703323 -22.94581329 52.03203522 -23.68861389 52.77900696 C-31.97214848 60.98585519 -31.97214848 60.98585519 -37.9375 61.625 C-42.55652872 61.13010407 -44.90311207 59.67856807 -48.25 56.5625 C-49.96688778 53.21908695 -50.12874191 49.88918536 -49.4375 46.25 C-47.52697206 42.71461887 -45.40258999 39.96619713 -42.56445312 37.1340332 C-41.79355347 36.36005692 -41.02265381 35.58608063 -40.22839355 34.78865051 C-39.40021118 33.96765366 -38.57202881 33.1466568 -37.71875 32.30078125 C-36.43732117 31.02003975 -36.43732117 31.02003975 -35.13000488 29.71342468 C-33.32682962 27.91326542 -31.52122962 26.11553213 -29.71337891 24.32006836 C-26.94245714 21.56742444 -24.17964228 18.80684115 -21.41796875 16.04492188 C-19.66453411 14.29640193 -17.91064334 12.54833927 -16.15625 10.80078125 C-15.32806763 9.9737117 -14.49988525 9.14664215 -13.64660645 8.29450989 C-12.87570679 7.52999008 -12.10480713 6.76547028 -11.31054688 5.9777832 C-10.63342651 5.30447464 -9.95630615 4.63116608 -9.25866699 3.93745422 C-6.15304359 1.05985028 -4.17351729 -0.02815189 0 0 Z " fill="#083863" transform="translate(428.4375,108.75)"/>
<path d="M0 0 C1.26488754 -0.00945648 2.52977509 -0.01891296 3.83299255 -0.02865601 C5.21036085 -0.02328556 6.5877263 -0.01713242 7.96508789 -0.01025391 C9.38229014 -0.01227583 10.79949137 -0.01518825 12.21669006 -0.01895142 C15.18492553 -0.02337069 18.15288985 -0.01695778 21.12109375 -0.00292969 C24.91866409 0.01414672 28.7155976 0.0043289 32.51314449 -0.01364708 C35.43946595 -0.02450921 38.3656375 -0.02102726 41.29196358 -0.0132637 C42.69174844 -0.01126758 44.09154707 -0.01370029 45.49131584 -0.02070236 C47.45123902 -0.02835418 49.41121013 -0.01461595 51.37109375 0 C53.04177162 0.00358017 53.04177162 0.00358017 54.74620056 0.00723267 C58.15868494 0.43997908 60.00824039 1.33967265 62.75024414 3.38818359 C65.57518139 7.62558947 65.52913134 11.41284292 64.75024414 16.38818359 C61.92418143 20.26392674 59.2287876 21.89716335 54.75024414 23.38818359 C52.03213501 23.64888 52.03213501 23.64888 49.0612793 23.6628418 C47.94306793 23.67237381 46.82485657 23.68190582 45.67276001 23.69172668 C44.4737204 23.69081528 43.27468079 23.68990387 42.03930664 23.68896484 C40.17705948 23.69539253 40.17705948 23.69539253 38.27719116 23.70195007 C34.98203381 23.70915638 31.68705949 23.70607436 28.39190674 23.70037842 C26.38005294 23.70068287 24.3684942 23.71071364 22.35668945 23.72436523 C18.47992194 23.74889872 14.60364221 23.75301913 10.72680664 23.75146484 C8.93431992 23.76527946 8.93431992 23.76527946 7.10562134 23.77937317 C-0.10331836 23.73944222 -4.98031985 23.09215973 -11.12475586 19.20068359 C-13.02250174 16.14320412 -13.36315063 12.91009181 -13.24975586 9.38818359 C-10.71640365 2.32146426 -7.39187223 0.01585169 0 0 Z " fill="#073862" transform="translate(447.249755859375,282.61181640625)"/>
<path d="M0 0 C1.89755791 -0.01925285 1.89755791 -0.01925285 3.83345032 -0.03889465 C5.22123829 -0.04706227 6.60903069 -0.05450596 7.99682617 -0.0612793 C9.04383981 -0.06739259 9.04383981 -0.06739259 10.11200523 -0.07362938 C13.80708902 -0.09449026 17.50213568 -0.10879138 21.19726562 -0.11816406 C25.01063097 -0.12922377 28.82341202 -0.16361758 32.63657093 -0.20333576 C35.57143729 -0.22950496 38.50616455 -0.23785615 41.44113731 -0.24144554 C42.84654368 -0.24631145 44.25194384 -0.25792575 45.6572361 -0.27648354 C47.62681613 -0.30087456 49.59668039 -0.2974902 51.56640625 -0.29296875 C53.24613274 -0.30176811 53.24613274 -0.30176811 54.95979309 -0.31074524 C58.66585755 0.2883008 60.30404599 1.59428431 62.97729492 4.17700195 C65.18622409 7.79161332 65.30918588 11.06169692 64.65307617 15.2434082 C63.40070391 18.82678548 61.12159142 20.14245716 57.97729492 22.17700195 C54.77418641 23.24802345 51.76492861 23.31476513 48.40185547 23.33813477 C47.28356857 23.34774231 46.16528168 23.35734985 45.0131073 23.36724854 C43.20680595 23.37362335 43.20680595 23.37362335 41.36401367 23.38012695 C40.12110062 23.38582703 38.87818756 23.3915271 37.59761047 23.3973999 C34.96742605 23.40684597 32.33722981 23.41338232 29.70703125 23.41723633 C27.01744046 23.42162604 24.32816957 23.43553853 21.63867188 23.45825195 C17.7553536 23.48874485 13.8724384 23.49928781 9.98901367 23.50512695 C8.19182137 23.52364716 8.19182137 23.52364716 6.35832214 23.5425415 C-0.66133397 23.52386112 -6.66256022 23.48894801 -11.92895508 18.2980957 C-13.94049448 14.39714609 -13.7802461 10.43300516 -13.02270508 6.17700195 C-8.99784523 0.9870511 -6.34204925 0.05587142 0 0 Z " fill="#073862" transform="translate(13.022705078125,282.822998046875)"/>
<path d="M0 0 C2.06591797 1.44482422 2.06591797 1.44482422 4.2421875 3.4921875 C5.54712158 4.71723999 5.54712158 4.71723999 6.87841797 5.96704102 C7.92109296 6.97581223 8.96141486 7.98701856 10 9 C10.61474182 9.59811493 11.22948364 10.19622986 11.862854 10.81246948 C16.1857953 15.03190076 20.4724103 19.28664036 24.74365234 23.55834961 C27.01771387 25.83019662 29.29970007 28.09388637 31.58203125 30.35742188 C33.03434202 31.80680299 34.48618236 33.25665568 35.9375 34.70703125 C36.6176416 35.37998734 37.2977832 36.05294342 37.99853516 36.74629211 C38.62679199 37.37762558 39.25504883 38.00895905 39.90234375 38.65942383 C40.45398193 39.20963699 41.00562012 39.75985016 41.57397461 40.32673645 C44.0839772 43.27191251 44.94661141 45.51950268 45.375 49.375 C44.92573223 53.7179218 43.8337428 55.70673134 41 59 C37.58473415 61.1819754 34.19979215 61.50596153 30.19287109 60.82983398 C20.53995723 57.1769444 11.38326941 44.56941837 4.16577148 37.35107422 C2.04755039 35.23506601 -0.07858749 33.12722498 -2.20507812 31.01953125 C-3.56298806 29.66455144 -4.92042721 28.30909963 -6.27734375 26.953125 C-7.22419289 26.01705414 -7.22419289 26.01705414 -8.19017029 25.06207275 C-15.46984849 17.74431368 -15.46984849 17.74431368 -16.3984375 12.9375 C-16.34478219 8.50199416 -15.92913892 5.55681155 -13 2 C-8.64248212 -0.56486812 -4.92911211 -1.09884367 0 0 Z " fill="#083863" transform="translate(88,109)"/>
<path d="M0 0 C4.06037168 0.02323532 4.96640463 0.1550689 8.3125 2.75 C11.18466176 6.64131593 11.38462059 8.58693275 11.42700195 13.39770508 C11.43983719 14.66274368 11.45267242 15.92778229 11.46589661 17.2311554 C11.47406422 18.61894337 11.48150791 20.00673577 11.48828125 21.39453125 C11.49235678 22.09254034 11.4964323 22.79054943 11.50063133 23.50971031 C11.52149222 27.2047941 11.53579334 30.89984076 11.54516602 34.5949707 C11.55622572 38.40833605 11.59061953 42.22111709 11.63033772 46.03427601 C11.65650691 48.96914237 11.6648581 51.90386963 11.66844749 54.83884239 C11.6733134 56.24424876 11.68492771 57.64964891 11.70348549 59.05494118 C11.72787651 61.0245212 11.72449215 62.99438547 11.7199707 64.96411133 C11.72877007 66.64383781 11.72877007 66.64383781 11.73774719 68.35749817 C11.13870115 72.06356263 9.83271764 73.70175107 7.25 76.375 C3.63801833 78.58232213 0.49593165 78.51989882 -3.6875 78.25 C-7.1725468 76.7714953 -9.11247609 74.7051785 -10.75 71.375 C-11.51159843 66.51164441 -11.45459623 61.65652168 -11.4140625 56.74609375 C-11.41743434 55.30932709 -11.42229002 53.87256322 -11.42855835 52.43580627 C-11.43591023 49.4322683 -11.42527867 46.42947631 -11.40185547 43.42602539 C-11.37334097 39.58328992 -11.38979637 35.74229855 -11.41971779 31.89962673 C-11.43781558 28.9354801 -11.43202224 25.97174478 -11.41907883 23.00758553 C-11.41575291 21.59105279 -11.41980329 20.17448224 -11.43147659 18.7579937 C-11.44422511 16.77673976 -11.4213362 14.79535414 -11.39697266 12.81420898 C-11.39299469 11.68869125 -11.38901672 10.56317352 -11.38491821 9.40354919 C-10.55705423 5.45465193 -8.76463197 3.95691448 -5.75 1.375 C-4.10843264 -0.26656736 -2.25784199 0.08684008 0 0 Z " fill="#083863" transform="translate(254.75,36.625)"/>
</svg>
